<svg width="60" height="60" viewBox="0 0 60 60" fill="none" xmlns="http://www.w3.org/2000/svg">
<g clip-path="url(#clip0_1_3)">
<g filter="url(#filter0_d_1_3)">
<path d="M13.3758 14.7761C12.6497 15.6269 12.5733 16.0746 12.7643 18.0895C13.1847 21.806 14.293 25.6119 15.8981 28.7015L16.7389 30.2686L15.7834 32.0597C14.1401 35.1492 12.5733 39 12.8026 39.3582C13.0319 39.806 26.4459 49.5224 29.1592 51.2239C30.6115 52.1194 31.1847 52.2537 31.9491 51.9403C33.9745 51.0448 49.2994 39.5821 49.2994 39C49.2994 38.6418 48.535 36.6716 47.5796 34.6119L45.8217 30.806L46.8153 28.8358C48.344 25.7463 49.6433 21.403 49.9108 18.2239C50.1401 15.4478 50.1019 15.2687 49.1847 14.5522C48.4204 13.9701 47.7707 13.8806 46.5478 14.1045C43.6433 14.597 39.0191 16.6119 37.0319 18.1791C35.9618 19.0298 34.9299 19.6119 34.7771 19.4776C33.8981 18.8507 30.7643 18.5373 29.121 18.8955C27.3631 19.2537 27.0955 19.1642 24.9936 17.6866C22.5096 15.9403 19.2229 14.597 16.1656 14.1045C14.4459 13.8358 14.1019 13.9254 13.3758 14.7761ZM18.8408 16.8358C21.2102 17.5522 24.6115 19.3433 24.9936 20.1045C25.1083 20.3284 24.3822 21.2239 23.3885 22.1194C22.3567 22.9701 20.7134 24.7164 19.7198 25.9701C18.7261 27.1791 17.8471 28.2089 17.7325 28.2089C17.0446 28.2089 14.5223 19.791 14.5223 17.3284C14.5223 15.8507 15.3248 15.7612 18.8408 16.8358ZM48.2675 17.7761C47.8089 21.5373 45.4777 28.6567 44.6752 28.6567C44.5223 28.6567 43.6815 27.6716 42.8026 26.4179C41.9618 25.2089 40.3567 23.4627 39.3248 22.5672C38.293 21.6716 37.4905 20.7313 37.5669 20.4179C37.9491 19.1194 44.5605 16.2537 47.465 16.1642C48.4204 16.1194 48.4586 16.2089 48.2675 17.7761ZM35.5414 21.9403C37.1847 22.9254 42.0382 27.9851 42.0382 28.7015C42.0382 28.8806 41.121 29.5075 40.051 30.1343C37.6051 31.4328 35.465 33.8955 34.0892 36.9403C33.2484 38.8209 33.0955 39.7612 33.0573 42.7612C33.0573 44.7313 33.2102 46.8806 33.3631 47.5075C33.6306 48.4925 33.5159 48.7164 32.3694 49.4776C31.0701 50.2836 31.0319 50.2836 29.6943 49.2985C28.3949 48.3582 28.3567 48.2686 28.7389 46.7015C29.3503 44.0597 28.9682 39.4925 27.8981 36.9851C26.5987 33.9403 24.2293 31.2537 21.7834 29.9552L19.7198 28.8358L21.3631 26.7313C23.0828 24.5373 26.1783 21.9403 28.0892 21.1343C29.8471 20.3731 33.5924 20.7761 35.5414 21.9403ZM21.3248 32.0597C25.0319 34.2089 27.2484 38.4627 27.2866 43.3433C27.2866 44.8657 27.0955 46.3433 26.8662 46.6119C26.5987 46.9254 24.7643 45.8507 20.7134 42.8955C17.5414 40.6119 14.9427 38.5522 14.9045 38.2836C14.9045 37.5224 18.4968 30.8955 18.9172 30.8955C19.1465 30.8955 20.2166 31.4328 21.3248 32.0597ZM44.6369 32.7761C45.2484 33.8507 46.1274 35.5522 46.586 36.5821L47.3885 38.4627L46.5478 39.1343C42.1911 42.403 35.7325 47.0149 35.5032 47.0149C34.9299 47.0149 34.7389 46.0746 34.7389 43.2089C34.7389 39.8955 35.5414 37.2985 37.414 34.8358C38.5605 33.2686 42 30.8955 43.0319 30.8955C43.2994 30.8955 44.0255 31.7463 44.6369 32.7761Z" fill="#D79A55"/>
<path d="M30.1147 48.5821C30.7261 49.1194 31.1083 49.1642 31.7197 48.806C32.828 48.0896 32.6752 47.9104 30.879 47.9104C29.3121 47.9104 29.2739 47.9104 30.1147 48.5821Z" fill="#D79A55"/>
<path d="M24.4586 40.5224C23.7707 41.4627 24.3057 42.6269 25.2994 42.4478C26.4076 42.2686 26.6369 40.9254 25.6815 40.3433C25.1083 39.9851 24.8026 40.0298 24.4586 40.5224Z" fill="#D79A55"/>
<path d="M36.3057 40.5224C35.6561 41.4179 36.1147 42.5373 37.0701 42.5373C37.4905 42.5373 37.9491 42.2239 38.0637 41.8657C38.293 41.194 37.6433 39.8507 37.0701 39.8507C36.9172 39.8507 36.5733 40.1642 36.3057 40.5224Z" fill="#D79A55"/>
</g>
</g>
<defs>
<filter id="filter0_d_1_3" x="8.67488" y="13.9698" width="45.3539" height="46.1236" filterUnits="userSpaceOnUse" color-interpolation-filters="sRGB">
<feFlood flood-opacity="0" result="BackgroundImageFix"/>
<feColorMatrix in="SourceAlpha" type="matrix" values="0 0 0 0 0 0 0 0 0 0 0 0 0 0 0 0 0 0 127 0" result="hardAlpha"/>
<feOffset dy="4"/>
<feGaussianBlur stdDeviation="2"/>
<feComposite in2="hardAlpha" operator="out"/>
<feColorMatrix type="matrix" values="0 0 0 0 0 0 0 0 0 0 0 0 0 0 0 0 0 0 0.25 0"/>
<feBlend mode="normal" in2="BackgroundImageFix" result="effect1_dropShadow_1_3"/>
<feBlend mode="normal" in="SourceGraphic" in2="effect1_dropShadow_1_3" result="shape"/>
</filter>
<clipPath id="clip0_1_3">
<rect width="60" height="60" fill="white"/>
</clipPath>
</defs>
</svg>
